<svg width="18" height="18" viewBox="0 0 18 18" fill="none" xmlns="http://www.w3.org/2000/svg">
<g id="Group 313">
<path id="Vector" d="M15.5668 1.73189H13.8311V0.867595C13.8311 0.390415 13.4478 0 12.9793 0H12.0471C11.5786 0 11.1953 0.390395 11.1953 0.867575V3.24772C11.1953 3.7249 11.5786 4.11532 12.0471 4.11532H12.1918C12.3693 4.11532 12.5132 4.26189 12.5132 4.44271C12.5132 4.62351 12.3693 4.7701 12.1918 4.7701H12.0471C11.2243 4.7701 10.5525 4.08912 10.5525 3.24772V1.7319H6.80462V0.867598C6.80462 0.390418 6.42132 3.27836e-06 5.95283 3.27836e-06H5.0207C4.55222 3.27836e-06 4.16891 0.390418 4.16891 0.867598V3.24772C4.16891 3.7249 4.55222 4.11532 5.0207 4.11532H5.16535C5.34288 4.11532 5.48678 4.26189 5.48678 4.44271C5.48678 4.62351 5.34288 4.7701 5.16535 4.7701H5.0207C4.19785 4.7701 3.52606 4.08912 3.52606 3.24772V1.7319H2.43321C1.09287 1.7319 0 2.84176 0 4.21026V5.90942H18V4.21026C18 2.84176 16.9071 1.73189 15.5668 1.73189ZM6.16176 1.73189H4.81176V0.867595C4.81176 0.749718 4.90499 0.654784 5.02069 0.654784H5.95284C6.06855 0.654784 6.16176 0.749721 6.16176 0.867595L6.16176 1.73189ZM13.1882 1.73189H11.8382V0.867595C11.8382 0.749718 11.9314 0.654784 12.0471 0.654784H12.9793C13.095 0.654784 13.1882 0.749721 13.1882 0.867595L13.1882 1.73189Z" fill="#ADC1C8"/>
<path id="Vector_2" d="M0.642856 6.56445H0V15.5219C0 16.8871 1.09286 18.0003 2.43322 18.0003H15.5668C16.9071 18.0003 18 16.8871 18 15.5219V6.56445H0.642856ZM4.16572 14.9457C4.16572 15.1258 4.02107 15.2731 3.84429 15.2731H2.18249C2.00571 15.2731 1.86106 15.1258 1.86106 14.9457V13.2531C1.86106 13.073 2.00571 12.9257 2.18249 12.9257H3.84429C4.02107 12.9257 4.16572 13.073 4.16572 13.2531V14.9457ZM4.16572 10.5521C4.16572 10.7322 4.02107 10.8795 3.84429 10.8795H2.18249C2.00571 10.8795 1.86106 10.7322 1.86106 10.5521V8.85948C1.86106 8.67941 2.00571 8.53209 2.18249 8.53209H3.84429C4.02107 8.53209 4.16572 8.67941 4.16572 8.85948V10.5521ZM8.15785 14.9457C8.15785 15.1258 8.0132 15.2731 7.83642 15.2731H6.17464C5.99784 15.2731 5.85321 15.1258 5.85321 14.9457V13.2531C5.85321 13.073 5.99784 12.9257 6.17464 12.9257H7.83642C8.0132 12.9257 8.15785 13.073 8.15785 13.2531V14.9457ZM8.15785 10.5521C8.15785 10.7322 8.0132 10.8795 7.83642 10.8795H6.17464C5.99784 10.8795 5.85321 10.7322 5.85321 10.5521V8.85948C5.85321 8.67941 5.99784 8.53209 6.17464 8.53209H7.83642C8.0132 8.53209 8.15785 8.67941 8.15785 8.85948V10.5521ZM12.1468 14.9457C12.1468 15.1258 12.0021 15.2731 11.8253 15.2731H10.1636C9.98678 15.2731 9.84213 15.1258 9.84213 14.9457V13.2531C9.84213 13.073 9.98678 12.9257 10.1636 12.9257H11.8253C12.0021 12.9257 12.1468 13.073 12.1468 13.2531V14.9457ZM12.1468 10.5521C12.1468 10.7322 12.0021 10.8795 11.8253 10.8795H10.1636C9.98678 10.8795 9.84213 10.7322 9.84213 10.5521V8.85948C9.84213 8.67941 9.98678 8.53209 10.1636 8.53209H11.8253C12.0021 8.53209 12.1468 8.67941 12.1468 8.85948V10.5521ZM16.1389 14.9457C16.1389 15.1258 15.9943 15.2731 15.8175 15.2731H14.1557C13.9789 15.2731 13.8343 15.1258 13.8343 14.9457V13.2531C13.8343 13.073 13.9789 12.9257 14.1557 12.9257H15.8175C15.9943 12.9257 16.1389 13.073 16.1389 13.2531V14.9457ZM16.1389 10.5521C16.1389 10.7322 15.9943 10.8795 15.8175 10.8795H14.1557C13.9789 10.8795 13.8343 10.7322 13.8343 10.5521V8.85948C13.8343 8.67941 13.9789 8.53209 14.1557 8.53209H15.8175C15.9943 8.53209 16.1389 8.67941 16.1389 8.85948V10.5521Z" fill="#ADC1C8"/>
</g>
</svg>
